<svg viewBox="0 0 300 260" fill="none" xmlns="http://www.w3.org/2000/svg">
  <defs>
    <linearGradient id="bubble" x1="40" y1="30" x2="260" y2="210" gradientUnits="userSpaceOnUse">
      <stop offset="0%" stop-color="#3B82F6" />
      <stop offset="100%" stop-color="#7C3AED" />
    </linearGradient>
  </defs>
  <path
    d="M140 30 C80 30 40 70 40 120 C40 170 80 210 140 210 L125 235 L165 210 C220 205 260 165 260 120 C260 70 220 30 140 30Z"
    fill="url(#bubble)"
  />
  <rect x="85" y="75" width="110" height="80" rx="22" fill="white" />
  <rect x="102" y="90" width="76" height="48" rx="14" fill="#0F172A" />
  <circle cx="122" cy="114" r="7" fill="#22D3EE" />
  <circle cx="158" cy="114" r="7" fill="#22D3EE" />
  <path d="M128 128 Q140 138 152 128" stroke="#22D3EE" stroke-width="4" stroke-linecap="round" />
  <line x1="140" y1="75" x2="140" y2="55" stroke="white" stroke-width="5" stroke-linecap="round" />
  <circle cx="140" cy="48" r="8" fill="white" />
</svg>
